<svg fill="none" height="394" viewBox="0 0 1600 394" width="1600" xmlns="http://www.w3.org/2000/svg" xmlns:xlink="http://www.w3.org/1999/xlink"><linearGradient id="a"><stop offset="0" stop-color="#17191b" stop-opacity="0"/><stop offset=".895" stop-color="#6e7781"/></linearGradient><linearGradient id="b" gradientUnits="userSpaceOnUse" x1="41.7432" x2="41.7431" xlink:href="#a" y1="26" y2="394"/><linearGradient id="c" gradientUnits="userSpaceOnUse" x1="84.9863" x2="84.9863" xlink:href="#a" y1="26" y2="394"/><linearGradient id="d" gradientUnits="userSpaceOnUse" x1="128.229" x2="128.229" xlink:href="#a" y1="26" y2="394"/><linearGradient id="e" gradientUnits="userSpaceOnUse" x1="171.473" x2="171.473" xlink:href="#a" y1="26" y2="394"/><linearGradient id="f" gradientUnits="userSpaceOnUse" x1="214.716" x2="214.716" xlink:href="#a" y1="26" y2="394"/><linearGradient id="g" gradientUnits="userSpaceOnUse" x1="257.959" x2="257.959" xlink:href="#a" y1="26" y2="394"/><linearGradient id="h" gradientUnits="userSpaceOnUse" x1="301.203" x2="301.203" xlink:href="#a" y1="26" y2="394"/><linearGradient id="i" gradientUnits="userSpaceOnUse" x1="344.446" x2="344.446" xlink:href="#a" y1="26" y2="394"/><linearGradient id="j" gradientUnits="userSpaceOnUse" x1="387.689" x2="387.689" xlink:href="#a" y1="26" y2="394"/><linearGradient id="k" gradientUnits="userSpaceOnUse" x1="430.933" x2="430.933" xlink:href="#a" y1="26" y2="394"/><linearGradient id="l" gradientUnits="userSpaceOnUse" x1="474.176" x2="474.176" xlink:href="#a" y1="26" y2="394"/><linearGradient id="m" gradientUnits="userSpaceOnUse" x1="517.419" x2="517.419" xlink:href="#a" y1="26" y2="394"/><linearGradient id="n" gradientUnits="userSpaceOnUse" x1="560.662" x2="560.662" xlink:href="#a" y1="26" y2="394"/><linearGradient id="o" gradientUnits="userSpaceOnUse" x1="603.905" x2="603.905" xlink:href="#a" y1="26" y2="394"/><linearGradient id="p" gradientUnits="userSpaceOnUse" x1="647.148" x2="647.148" xlink:href="#a" y1="26" y2="394"/><linearGradient id="q" gradientUnits="userSpaceOnUse" x1="690.392" x2="690.392" xlink:href="#a" y1="26" y2="394"/><linearGradient id="r" gradientUnits="userSpaceOnUse" x1="733.635" x2="733.635" xlink:href="#a" y1="26" y2="394"/><linearGradient id="s" gradientUnits="userSpaceOnUse" x1="776.878" x2="776.878" xlink:href="#a" y1="26" y2="394"/><linearGradient id="t" gradientUnits="userSpaceOnUse" x1="820.121" x2="820.121" xlink:href="#a" y1="26" y2="394"/><linearGradient id="u" gradientUnits="userSpaceOnUse" x1="863.364" x2="863.364" xlink:href="#a" y1="26" y2="394"/><linearGradient id="v" gradientUnits="userSpaceOnUse" x1="906.607" x2="906.607" xlink:href="#a" y1="26" y2="394"/><linearGradient id="w" gradientUnits="userSpaceOnUse" x1="949.852" x2="949.852" xlink:href="#a" y1="26" y2="394"/><linearGradient id="x" gradientUnits="userSpaceOnUse" x1="993.095" x2="993.095" xlink:href="#a" y1="26" y2="394"/><linearGradient id="y" gradientUnits="userSpaceOnUse" x1="1036.34" x2="1036.34" xlink:href="#a" y1="26" y2="394"/><linearGradient id="z" gradientUnits="userSpaceOnUse" x1="1079.58" x2="1079.58" xlink:href="#a" y1="26" y2="394"/><linearGradient id="A" gradientUnits="userSpaceOnUse" x1="1122.82" x2="1122.82" xlink:href="#a" y1="26" y2="394"/><linearGradient id="B" gradientUnits="userSpaceOnUse" x1="1166.07" x2="1166.07" xlink:href="#a" y1="26" y2="394"/><linearGradient id="C" gradientUnits="userSpaceOnUse" x1="1209.31" x2="1209.31" xlink:href="#a" y1="26" y2="394"/><linearGradient id="D" gradientUnits="userSpaceOnUse" x1="1252.55" x2="1252.55" xlink:href="#a" y1="26" y2="394"/><linearGradient id="E" gradientUnits="userSpaceOnUse" x1="1295.8" x2="1295.8" xlink:href="#a" y1="26" y2="394"/><linearGradient id="F" gradientUnits="userSpaceOnUse" x1="1339.04" x2="1339.04" xlink:href="#a" y1="26" y2="394"/><linearGradient id="G" gradientUnits="userSpaceOnUse" x1="1382.28" x2="1382.28" xlink:href="#a" y1="26" y2="394"/><linearGradient id="H" gradientUnits="userSpaceOnUse" x1="1425.53" x2="1425.53" xlink:href="#a" y1="26" y2="394"/><linearGradient id="I" gradientUnits="userSpaceOnUse" x1="1468.77" x2="1468.77" xlink:href="#a" y1="26" y2="394"/><linearGradient id="J" gradientUnits="userSpaceOnUse" x1="1512.01" x2="1512.01" xlink:href="#a" y1="26" y2="394"/><linearGradient id="K" gradientUnits="userSpaceOnUse" x1="1555.26" x2="1555.26" xlink:href="#a" y1="26" y2="394"/><linearGradient id="L" gradientUnits="userSpaceOnUse" x1="1598.5" x2="1598.5" xlink:href="#a" y1="26" y2="394"/><g opacity=".4"><path d="m42.7432 26-.0001 368" stroke="url(#b)"/><path d="m85.9863 26v368" stroke="url(#c)"/><path d="m129.229 26v368" stroke="url(#d)"/><path d="m172.473 26v368" stroke="url(#e)"/><path d="m215.716 26v368" stroke="url(#f)"/><path d="m258.959 26v368" stroke="url(#g)"/><path d="m302.203 26v368" stroke="url(#h)"/><path d="m345.446 26v368" stroke="url(#i)"/><path d="m388.689 26v368" stroke="url(#j)"/><path d="m431.933 26v368" stroke="url(#k)"/><path d="m475.176 26v368" stroke="url(#l)"/><path d="m518.419 26v368" stroke="url(#m)"/><path d="m561.662 26v368" stroke="url(#n)"/><path d="m604.905 26v368" stroke="url(#o)"/><path d="m648.148 26v368" stroke="url(#p)"/><path d="m691.392 26v368" stroke="url(#q)"/><path d="m734.635 26v368" stroke="url(#r)"/><path d="m777.878 26v368" stroke="url(#s)"/><path d="m821.121 26v368" stroke="url(#t)"/><path d="m864.364 26v368" stroke="url(#u)"/><path d="m907.607 26v368" stroke="url(#v)"/><path d="m950.852 26v368" stroke="url(#w)"/><path d="m994.095 26v368" stroke="url(#x)"/><path d="m1037.34 26v368" stroke="url(#y)"/><path d="m1080.58 26v368" stroke="url(#z)"/><path d="m1123.82 26v368" stroke="url(#A)"/><path d="m1167.07 26v368" stroke="url(#B)"/><path d="m1210.31 26v368" stroke="url(#C)"/><path d="m1253.55 26v368" stroke="url(#D)"/><path d="m1296.8 26v368" stroke="url(#E)"/><path d="m1340.04 26v368" stroke="url(#F)"/><path d="m1383.28 26v368" stroke="url(#G)"/><path d="m1426.53 26v368" stroke="url(#H)"/><path d="m1469.77 26v368" stroke="url(#I)"/><path d="m1513.01 26v368" stroke="url(#J)"/><path d="m1556.26 26v368" stroke="url(#K)"/><path d="m1599.5 26v368" stroke="url(#L)"/><g stroke="#6e7781"><path d="m-1 43.2773h1600" opacity=".02"/><path d="m-1 87.0547h1600" opacity=".07"/><path d="m-1 130.834h1600" opacity=".08"/><path d="m-1 174.611h1600" opacity=".1"/><path d="m-1 218.389h1600" opacity=".3"/><path d="m-1 262.166h1600" opacity=".4"/><path d="m-1 305.945h1600" opacity=".5"/><path d="m-1 349.723h1600" opacity=".7"/><path d="m-1 393.5h1600"/></g></g></svg>